<svg xmlns="http://www.w3.org/2000/svg" xmlns:xlink="http://www.w3.org/1999/xlink" id="Capa_1" x="0px" y="0px" width="481px" height="177px" viewBox="0 0 481 177" xml:space="preserve"> <g> <g> <path fill="#1E76BC" d="M127.5,39.677c0.792,0.756,1.587,1.506,2.386,2.255c0.789,0.75,1.522,1.571,2.184,2.438 c0.476,0.586,0.936,1.245,1.408,1.864c1.115-0.091,2.226-0.176,3.458-0.176c3.38,0,6.199,0.384,8.451,1.127 c3.448,1.004,6.558,2.321,9.341,3.944c4.106,2.379,7.421,5.632,9.941,9.758c0.798,1.128,1.457,2.444,1.991,3.944 c0.528,1.499,1.323,2.692,2.386,3.565c0.659,0.378,1.656,0.659,2.979,0.841c1.323,0.189,2.787,0.32,4.371,0.378 c1.594,0.065,3.214,0.065,4.873,0c1.659-0.059,3.083-0.098,4.272-0.098c0.929,0,1.894,0.039,2.885,0.098 c0.997,0.065,1.89-0.033,2.682-0.28h1.591c0.926-0.248,1.76-0.47,2.483-0.652c0.73-0.189,1.226-0.659,1.493-1.408 c0.401-1.004,0.466-2.073,0.202-3.194c-0.271-1.128-0.534-2.125-0.795-3.005c-0.795-2.627-1.663-5.032-2.585-7.223 c-0.929-2.19-2.122-4.348-3.582-6.473c-5.299-7.888-12.457-14.204-21.469-18.963c-9.019-4.752-20.478-7-34.392-6.753 c-0.267,0.124-0.593,0.124-0.994,0c-0.397-0.124-0.727-0.124-0.991,0c-1.069,0.124-2.089,0.215-3.086,0.274 c-0.991,0.071-2.021,0.169-3.077,0.293c-0.665,0.248-1.395,0.365-2.187,0.365c-0.795,0-1.587,0.13-2.389,0.378 c-1.858,0.378-3.644,0.782-5.365,1.219c-1.724,0.443-3.38,0.971-4.971,1.597c-1.118,0.424-2.122,0.9-3.174,1.35 c3.334,1.408,6.476,2.901,9.243,4.563C120.704,33.896,124.185,36.555,127.5,39.677z"></path> <path fill="#1E76BC" d="M196.877,107.998c-0.795-0.502-1.828-0.749-3.08-0.749h-3.68h-12.128h-3.383 c-1.19,0-2.184,0.124-2.976,0.371c-1.333,0.633-2.19,1.506-2.584,2.634c-0.401,1.128-0.802,2.379-1.196,3.755 c-0.662,1.499-1.258,2.998-1.786,4.498c-0.535,1.505-1.196,2.881-1.988,4.139c-1.724,2.62-3.68,4.968-5.867,7.027 c-2.187,2.066-4.804,3.735-7.852,4.98c-1.327,0.625-2.683,1.068-4.074,1.31c-1.395,0.255-2.888,0.502-4.472,0.75 c-0.401,0.13-0.998,0.189-1.793,0.189c-0.668,0.13-1.525,0.221-2.584,0.279c-1.062,0.065-1.923-0.032-2.581-0.279h-1.027h-0.567 c-0.665,0-1.291-0.026-1.884-0.092c-0.603-0.065-1.232-0.156-1.894-0.28c-1.858-0.502-3.575-0.972-5.169-1.408 c-1.587-0.437-3.112-0.971-4.569-1.597c-4.775-2.373-8.618-5.41-11.531-9.1c-0.14-0.177-0.264-0.379-0.391-0.555 c-2.738-3.585-5-7.861-6.766-12.867c-0.398-1.128-0.73-2.282-0.994-3.475c-0.264-1.187-0.531-2.471-0.792-3.846 c-0.18-0.825-0.274-1.5-0.333-2.105h17.489c2.816,0,5.104-2.738,5.104-6.102V83.358c0-3.37-2.288-6.108-5.104-6.108h-16.72 c0.052-0.326,0.104-0.62,0.156-0.965c0.659-1.753,1.262-3.442,1.793-5.072c0.524-1.623,1.118-3.188,1.786-4.693 c1.183-2.666,2.659-5.064,4.38-7.249c-3.687-4.687-8.565-8.292-14.712-10.769c-0.929-0.378-1.822-0.652-2.686-0.848 c-0.861-0.182-1.819-0.404-2.881-0.652c-1.597-0.397-3.438-0.625-5.384-0.769C80.396,48.529,78.672,51,77,53.757 c-0.932,1.382-1.753,2.888-2.484,4.504c-0.73,1.63-1.424,3.259-2.089,4.882c-0.662,1.506-1.193,3.096-1.587,4.785 c-0.404,1.688-0.867,3.409-1.395,5.163c-0.264,1.004-0.466,1.975-0.593,2.907c-0.137,0.939-0.335,1.91-0.6,2.908 c-0.134,1.127-0.231,2.255-0.3,3.376c-0.065,1.127-0.235,2.19-0.496,3.194v1.688c0,0.254,0.029,0.6,0.101,1.037 c0.065,0.437,0.026,0.841-0.101,1.219c-0.267,0.626-0.401,1.564-0.401,2.816c0,1.252,0.134,2.19,0.401,2.816v3.565 c0.127,0.502,0.167,0.965,0.101,1.401c-0.072,0.443,0.026,0.972,0.297,1.598c0.264,1.127,0.463,2.313,0.596,3.565 c0.134,1.251,0.329,2.438,0.6,3.565c0.13,0.509,0.199,0.972,0.199,1.408c0,0.443,0.127,0.971,0.394,1.597 c0.662,2.001,1.262,3.944,1.79,5.821c0.531,1.877,1.196,3.755,1.988,5.632c2.317,5.046,5.136,9.583,8.383,13.696 c1.584,2.007,3.23,3.943,5.039,5.729c5.492,5.437,12.226,9.791,20.175,13.037c0.248,0.117,0.541,0.222,0.795,0.339 c0.837,0.365,1.672,0.736,2.587,1.075c1.187,0.438,2.383,0.841,3.576,1.22c1.323,0.371,2.617,0.678,3.878,0.938 c1.255,0.247,2.552,0.561,3.872,0.932c1.062,0.131,2.05,0.255,2.982,0.378c0.929,0.124,1.854,0.248,2.787,0.379 c0.926,0,1.59,0.059,1.985,0.188c1.059,0.241,2.187,0.372,3.38,0.372h3.576h3.184c0.926-0.131,1.822-0.222,2.683-0.28 c0.86-0.065,1.756-0.092,2.686-0.092c0.658-0.254,1.294-0.352,1.887-0.286c0.596,0.064,1.225-0.033,1.894-0.281 c1.45-0.247,2.907-0.502,4.367-0.749c1.46-0.255,2.914-0.626,4.377-1.128c13.917-4.25,24.513-11.76,31.808-22.521 c0.662-0.874,1.193-1.779,1.59-2.719c0.395-0.938,0.926-1.909,1.587-2.913c0.925-1.624,1.688-3.312,2.288-5.059 c0.593-1.754,1.222-3.572,1.887-5.45l1.193-5.071c0.401-1.245,0.564-2.555,0.499-3.937 C198.295,109.628,197.803,108.624,196.877,107.998z"></path> </g> <path fill="#2AA9E0" d="M237.416,98.84h-1.385c-0.117-0.509-0.319-0.972-0.606-1.375c-0.287-0.418-0.623-0.763-1.007-1.037 c-0.388-0.273-0.828-0.488-1.317-0.639c-0.489-0.149-0.997-0.222-1.535-0.222c-1.219,0-2.236,0.28-3.07,0.835 c-0.825,0.561-1.438,1.297-1.829,2.196c-0.391,0.906-0.587,1.871-0.587,2.9c0,0.763,0.104,1.493,0.32,2.19 c0.208,0.691,0.544,1.323,0.997,1.897c0.457,0.58,1.037,1.029,1.744,1.362c0.704,0.326,1.512,0.482,2.425,0.482 c0.861,0,1.633-0.183,2.311-0.567c0.681-0.378,1.222-0.899,1.623-1.564c0.401-0.658,0.646-1.396,0.733-2.197h1.382 c-0.127,1.083-0.453,2.041-0.981,2.862c-0.525,0.821-1.229,1.46-2.105,1.896c-0.876,0.443-1.864,0.665-2.963,0.665 c-1.118,0-2.105-0.195-2.966-0.567c-0.867-0.378-1.584-0.893-2.161-1.545c-0.577-0.658-1.014-1.407-1.304-2.248 c-0.297-0.835-0.44-1.728-0.44-2.673s0.143-1.839,0.44-2.68c0.29-0.834,0.727-1.584,1.304-2.242 c0.577-0.651,1.297-1.173,2.164-1.538c0.864-0.365,1.851-0.555,2.962-0.555c0.919,0,1.809,0.17,2.663,0.516 c0.86,0.339,1.574,0.841,2.151,1.506C236.957,97.158,237.302,97.94,237.416,98.84"></path> <path fill="#2AA9E0" d="M238.743,108.239l5.867-13.486h1.548l5.714,13.486h-1.493l-1.772-4.191h-6.626l-1.754,4.191H238.743z M245.323,96.05l-2.917,6.896h5.729L245.323,96.05z M247.833,91.018l-2.692,2.659h-1.04l2.135-2.659H247.833z"></path> <polygon fill="#2AA9E0" points="253.765,108.239 253.765,94.753 255.795,94.753 260.837,106.577 265.856,94.753 267.887,94.753 267.887,108.239 266.505,108.239 266.505,96.584 266.463,96.584 261.492,108.239 260.176,108.239 255.189,96.584 255.149,96.584 255.149,108.239 "></polygon> <path fill="#2AA9E0" d="M269.784,108.239l5.863-13.486h1.552l5.713,13.486h-1.496l-1.77-4.191h-6.629l-1.751,4.191H269.784z M276.361,96.05l-2.917,6.896h5.733L276.361,96.05z"></path> <path fill="#2AA9E0" d="M284.846,108.239V94.753h6.661c0.821,0,1.568,0.13,2.243,0.385c0.671,0.247,1.206,0.639,1.597,1.166 c0.392,0.521,0.583,1.181,0.583,1.963c0,0.886-0.241,1.636-0.727,2.255s-1.183,1.017-2.099,1.187v0.039 c0.887,0.104,1.519,0.411,1.894,0.933c0.381,0.508,0.593,1.212,0.648,2.099c0.02,0.326,0.036,0.658,0.062,1.004 c0.017,0.339,0.046,0.658,0.085,0.945c0.033,0.286,0.098,0.58,0.186,0.854c0.089,0.28,0.202,0.502,0.33,0.658h-1.513 c-0.095-0.143-0.17-0.339-0.225-0.586c-0.056-0.255-0.092-0.477-0.107-0.679c-0.017-0.195-0.036-0.476-0.06-0.821 c-0.052-0.802-0.14-1.466-0.267-2.001c-0.124-0.541-0.395-0.99-0.812-1.35c-0.414-0.358-1.027-0.541-1.835-0.541h-5.264v5.978 H284.846z M286.228,95.842v5.312h5.182c0.561,0,1.082-0.104,1.568-0.313c0.482-0.208,0.866-0.521,1.146-0.919 s0.428-0.86,0.428-1.389c0-0.848-0.271-1.506-0.809-1.981s-1.316-0.71-2.334-0.71H286.228z"></path> <path fill="#2AA9E0" d="M297.439,108.239l5.863-13.486h1.552l5.713,13.486h-1.496l-1.77-4.191h-6.626l-1.754,4.191H297.439z M304.017,96.05l-2.914,6.896h5.733L304.017,96.05z"></path> <path fill="#2AA9E0" d="M317.164,108.239l5.864-13.486h1.551l5.714,13.486H328.8l-1.77-4.191h-6.63l-1.753,4.191H317.164z M323.741,96.05l-2.913,6.896h5.732L323.741,96.05z"></path> <path fill="#2AA9E0" d="M332.226,108.239V94.753h6.662c0.824,0,1.571,0.13,2.242,0.385c0.675,0.247,1.209,0.639,1.597,1.166 c0.392,0.521,0.587,1.181,0.587,1.963c0,0.886-0.244,1.636-0.729,2.255c-0.482,0.619-1.184,1.017-2.096,1.187v0.039 c0.886,0.104,1.519,0.411,1.894,0.933c0.378,0.508,0.593,1.212,0.645,2.099c0.021,0.326,0.04,0.658,0.06,1.004 c0.02,0.339,0.049,0.658,0.084,0.945c0.036,0.286,0.102,0.58,0.189,0.854c0.091,0.28,0.202,0.502,0.332,0.658h-1.516 c-0.091-0.143-0.162-0.339-0.222-0.586c-0.059-0.255-0.091-0.477-0.113-0.679c-0.01-0.195-0.033-0.476-0.053-0.821 c-0.052-0.802-0.14-1.466-0.271-2.001c-0.124-0.541-0.395-0.99-0.812-1.35c-0.41-0.358-1.026-0.541-1.835-0.541h-5.261v5.978 H332.226z M333.61,95.842v5.312h5.18c0.557,0,1.082-0.104,1.567-0.313c0.482-0.208,0.867-0.521,1.15-0.919 c0.28-0.397,0.421-0.86,0.421-1.389c0-0.848-0.268-1.506-0.806-1.981c-0.537-0.476-1.316-0.71-2.333-0.71H333.61z"></path> <path fill="#2AA9E0" d="M358.863,101.376v6.863h-1.003l-0.183-2.444h-0.036c-0.326,0.626-0.74,1.147-1.252,1.552 c-0.505,0.397-1.085,0.697-1.733,0.887c-0.655,0.195-1.337,0.293-2.054,0.293c-1.114,0-2.105-0.195-2.966-0.567 c-0.86-0.378-1.581-0.893-2.161-1.545c-0.573-0.658-1.01-1.407-1.304-2.248c-0.29-0.835-0.434-1.728-0.434-2.673 s0.144-1.839,0.434-2.68c0.294-0.834,0.73-1.584,1.304-2.242c0.58-0.651,1.301-1.173,2.168-1.538 c0.866-0.365,1.851-0.555,2.959-0.555c1.023,0,1.962,0.17,2.822,0.516c0.857,0.339,1.571,0.848,2.139,1.519 c0.57,0.672,0.938,1.486,1.111,2.432h-1.386c-0.035-0.372-0.176-0.77-0.413-1.18c-0.238-0.411-0.567-0.782-0.981-1.122 c-0.414-0.325-0.896-0.593-1.45-0.781c-0.548-0.196-1.164-0.294-1.842-0.294c-1.212,0-2.235,0.28-3.063,0.835 c-0.828,0.561-1.44,1.297-1.829,2.196c-0.394,0.906-0.59,1.871-0.59,2.9c0,0.77,0.104,1.493,0.319,2.19 c0.212,0.691,0.545,1.323,1.001,1.897c0.453,0.58,1.033,1.023,1.74,1.362c0.708,0.319,1.513,0.488,2.422,0.488 c1.023,0,1.92-0.215,2.686-0.632c0.763-0.417,1.35-1.004,1.75-1.754c0.401-0.756,0.604-1.609,0.604-2.574h-4.957v-1.102H358.863z"></path> <polygon fill="#2AA9E0" points="362.152,108.239 362.152,94.753 372.194,94.753 372.194,95.842 363.534,95.842 363.534,100.724 371.646,100.724 371.646,101.832 363.534,101.832 363.534,107.132 372.295,107.132 372.295,108.239 "></polygon> <polygon fill="#2AA9E0" points="374.824,108.239 374.824,94.753 376.369,94.753 384.85,106.167 384.889,106.167 384.889,94.753 386.271,94.753 386.271,108.239 384.729,108.239 376.249,96.832 376.213,96.832 376.213,108.239 "></polygon> <polygon fill="#2AA9E0" points="388.236,95.842 388.236,94.753 399.771,94.753 399.771,95.842 394.696,95.842 394.696,108.239 393.314,108.239 393.314,95.842 "></polygon> <rect x="401.857" y="94.753" fill="#2AA9E0" width="1.382" height="13.486"></rect> <polygon fill="#2AA9E0" points="406.876,108.239 406.876,94.753 408.418,94.753 416.902,106.167 416.941,106.167 416.941,94.753 418.323,94.753 418.323,108.239 416.778,108.239 408.301,96.832 408.262,96.832 408.262,108.239 "></polygon> <path fill="#2AA9E0" d="M420.246,108.239l5.863-13.486h1.552l5.713,13.486h-1.492l-1.771-4.191h-6.629l-1.754,4.191H420.246z M426.823,96.05l-2.914,6.896h5.73L426.823,96.05z"></path> <path fill="#2AA9E0" d="M450.593,94.753v13.486h-1.186v-1.851h-0.043c-0.188,0.43-0.482,0.802-0.873,1.127 c-0.392,0.32-0.841,0.567-1.343,0.743c-0.506,0.177-1.018,0.268-1.532,0.268c-0.763,0-1.444-0.137-2.047-0.397 c-0.6-0.268-1.102-0.639-1.503-1.135c-0.4-0.488-0.7-1.049-0.89-1.668c-0.192-0.626-0.29-1.284-0.29-1.969 c0-0.691,0.098-1.343,0.29-1.969c0.189-0.619,0.486-1.167,0.887-1.649c0.397-0.482,0.894-0.854,1.486-1.121 s1.281-0.404,2.066-0.404c0.821,0,1.571,0.189,2.236,0.555c0.671,0.364,1.144,0.893,1.417,1.584h0.036v-5.6H450.593z M442.171,103.357c0,0.534,0.068,1.043,0.202,1.545c0.141,0.488,0.346,0.932,0.619,1.323c0.274,0.385,0.636,0.704,1.082,0.945 c0.443,0.234,0.959,0.358,1.542,0.358c0.854,0,1.558-0.202,2.115-0.594c0.554-0.397,0.952-0.912,1.203-1.551 c0.251-0.633,0.371-1.311,0.371-2.027c0-1.147-0.297-2.132-0.893-2.934c-0.597-0.809-1.532-1.213-2.797-1.213 c-0.597,0-1.114,0.118-1.548,0.353s-0.789,0.541-1.066,0.932c-0.276,0.392-0.482,0.828-0.619,1.323 C442.243,102.308,442.171,102.816,442.171,103.357"></path> <path fill="#2AA9E0" d="M462.496,103.703h-8.09c0.014,0.997,0.31,1.884,0.89,2.659c0.584,0.775,1.438,1.167,2.572,1.167 c0.899,0,1.619-0.222,2.174-0.672c0.548-0.443,0.926-1.049,1.131-1.818h1.284c-0.144,0.561-0.343,1.056-0.593,1.486 c-0.248,0.43-0.562,0.789-0.939,1.089s-0.821,0.527-1.326,0.684c-0.502,0.15-1.079,0.229-1.73,0.229 c-0.815,0-1.525-0.137-2.125-0.404c-0.597-0.267-1.092-0.639-1.483-1.108c-0.385-0.476-0.675-1.029-0.86-1.655 c-0.183-0.619-0.277-1.291-0.277-2.001c0-0.652,0.095-1.291,0.284-1.91c0.188-0.619,0.476-1.174,0.86-1.655 c0.385-0.489,0.88-0.867,1.489-1.154c0.606-0.287,1.311-0.424,2.112-0.424c0.805,0,1.496,0.144,2.082,0.431 c0.584,0.286,1.062,0.685,1.441,1.192c0.378,0.502,0.658,1.082,0.837,1.734C462.411,102.223,462.496,102.934,462.496,103.703 M454.406,102.686h6.806c-0.017-0.593-0.163-1.16-0.434-1.701c-0.273-0.534-0.658-0.971-1.153-1.291 c-0.502-0.319-1.089-0.482-1.757-0.482c-0.665,0-1.245,0.163-1.751,0.482c-0.505,0.32-0.896,0.75-1.176,1.278 C454.657,101.499,454.479,102.073,454.406,102.686"></path> <path fill="#2AA9E0" d="M236.996,121.283h-1.382c-0.121-0.508-0.319-0.971-0.606-1.382c-0.287-0.411-0.623-0.756-1.014-1.03 c-0.388-0.28-0.821-0.488-1.313-0.645c-0.485-0.144-1-0.222-1.535-0.222c-1.215,0-2.236,0.28-3.067,0.841 c-0.831,0.566-1.437,1.29-1.832,2.196c-0.391,0.899-0.583,1.871-0.583,2.895c0,0.769,0.104,1.499,0.316,2.19 c0.211,0.697,0.547,1.329,1,1.903c0.456,0.573,1.033,1.029,1.74,1.355c0.708,0.326,1.516,0.495,2.425,0.495 c0.861,0,1.633-0.195,2.311-0.573c0.681-0.378,1.222-0.899,1.623-1.564c0.404-0.665,0.646-1.395,0.733-2.203h1.382 c-0.124,1.089-0.453,2.04-0.981,2.868c-0.525,0.821-1.226,1.453-2.105,1.891c-0.87,0.443-1.861,0.664-2.963,0.664 c-1.118,0-2.105-0.188-2.966-0.566c-0.864-0.372-1.584-0.894-2.161-1.545c-0.577-0.658-1.011-1.401-1.301-2.242 c-0.296-0.842-0.44-1.734-0.44-2.68s0.144-1.838,0.44-2.679c0.29-0.835,0.724-1.584,1.301-2.243 c0.577-0.658,1.297-1.166,2.164-1.531c0.867-0.372,1.854-0.555,2.962-0.555c0.922,0,1.809,0.17,2.667,0.509 c0.854,0.346,1.574,0.848,2.147,1.506C236.54,119.595,236.881,120.377,236.996,121.283"></path> <path fill="#2AA9E0" d="M238.039,123.93c0-0.945,0.146-1.838,0.44-2.679c0.29-0.835,0.724-1.584,1.301-2.243 c0.577-0.658,1.304-1.166,2.167-1.531c0.867-0.372,1.854-0.555,2.96-0.555c1.111,0,2.096,0.183,2.959,0.555 c0.86,0.365,1.581,0.873,2.161,1.531c0.58,0.659,1.014,1.408,1.297,2.243c0.287,0.841,0.431,1.733,0.431,2.679 s-0.144,1.838-0.431,2.68c-0.283,0.841-0.714,1.584-1.29,2.242c-0.577,0.651-1.301,1.173-2.161,1.545 c-0.864,0.378-1.849,0.566-2.966,0.566c-1.111,0-2.105-0.188-2.966-0.566c-0.861-0.372-1.584-0.894-2.161-1.545 c-0.577-0.658-1.011-1.401-1.301-2.242C238.185,125.768,238.039,124.875,238.039,123.93 M239.424,123.937 c0,0.769,0.104,1.499,0.319,2.19c0.208,0.697,0.541,1.329,1,1.903c0.454,0.58,1.037,1.029,1.741,1.355 c0.707,0.326,1.513,0.495,2.422,0.495c1.209,0,2.223-0.28,3.051-0.841c0.827-0.561,1.434-1.29,1.828-2.196 c0.391-0.906,0.583-1.871,0.583-2.907c0-1.023-0.192-1.995-0.583-2.895c-0.395-0.906-1.001-1.636-1.828-2.196 c-0.828-0.561-1.842-0.835-3.051-0.835c-1.213,0-2.233,0.274-3.067,0.835c-0.828,0.561-1.438,1.29-1.829,2.196 C239.619,121.941,239.424,122.913,239.424,123.937"></path> <polygon fill="#2AA9E0" points="253.374,130.684 253.374,117.196 255.404,117.196 260.443,129.021 265.466,117.196 267.496,117.196 267.496,130.684 266.111,130.684 266.111,119.028 266.075,119.028 261.102,130.684 259.788,130.684 254.795,119.028 254.756,119.028 254.756,130.684 "></polygon> <polygon fill="#2AA9E0" points="269.882,130.684 269.882,117.196 279.927,117.196 279.927,118.285 271.267,118.285 271.267,123.167 279.376,123.167 279.376,124.275 271.267,124.275 271.267,129.575 280.024,129.575 280.024,130.684 "></polygon> <path fill="#2AA9E0" d="M281.456,130.684v-13.487h6.661c0.821,0,1.568,0.124,2.243,0.378c0.671,0.254,1.206,0.646,1.594,1.167 c0.395,0.528,0.586,1.187,0.586,1.969c0,0.886-0.241,1.636-0.727,2.255c-0.485,0.613-1.183,1.011-2.096,1.187v0.039 c0.887,0.104,1.516,0.411,1.894,0.926s0.594,1.213,0.646,2.105c0.02,0.319,0.039,0.651,0.059,0.997 c0.017,0.346,0.046,0.665,0.085,0.952c0.036,0.287,0.101,0.573,0.188,0.854c0.092,0.28,0.199,0.496,0.333,0.659h-1.516 c-0.091-0.144-0.17-0.34-0.225-0.594c-0.056-0.248-0.092-0.476-0.111-0.672c-0.016-0.195-0.036-0.476-0.052-0.827 c-0.053-0.796-0.144-1.467-0.271-2.001c-0.124-0.535-0.397-0.984-0.815-1.35c-0.41-0.358-1.023-0.541-1.835-0.541h-5.26v5.984 H281.456z M282.838,118.285v5.312h5.182c0.558,0,1.079-0.104,1.564-0.319c0.486-0.209,0.87-0.516,1.15-0.913 c0.284-0.404,0.424-0.867,0.424-1.395c0-0.841-0.267-1.5-0.808-1.976c-0.538-0.476-1.313-0.71-2.331-0.71H282.838z"></path> <path fill="#2AA9E0" d="M306.565,121.283h-1.389c-0.117-0.508-0.319-0.971-0.6-1.382c-0.29-0.411-0.626-0.756-1.014-1.03 c-0.388-0.28-0.825-0.488-1.313-0.645c-0.489-0.144-1.001-0.222-1.538-0.222c-1.213,0-2.236,0.28-3.064,0.841 c-0.831,0.566-1.44,1.29-1.831,2.196c-0.395,0.899-0.587,1.871-0.587,2.895c0,0.769,0.101,1.499,0.316,2.19 c0.215,0.697,0.547,1.329,1,1.903c0.453,0.573,1.037,1.029,1.744,1.355s1.516,0.495,2.422,0.495c0.863,0,1.633-0.195,2.313-0.573 c0.682-0.378,1.223-0.899,1.623-1.564c0.404-0.665,0.643-1.395,0.733-2.203h1.382c-0.13,1.089-0.456,2.04-0.98,2.868 c-0.528,0.821-1.232,1.453-2.105,1.891c-0.877,0.443-1.861,0.664-2.966,0.664c-1.115,0-2.103-0.188-2.967-0.566 c-0.863-0.372-1.58-0.894-2.157-1.545c-0.577-0.658-1.014-1.401-1.304-2.242c-0.293-0.842-0.44-1.734-0.44-2.68 s0.147-1.838,0.44-2.679c0.29-0.835,0.727-1.584,1.304-2.243c0.577-0.658,1.297-1.166,2.164-1.531 c0.867-0.372,1.852-0.555,2.96-0.555c0.922,0,1.812,0.17,2.666,0.509c0.856,0.346,1.574,0.848,2.15,1.506 C306.105,119.595,306.451,120.377,306.565,121.283"></path> <rect x="308.485" y="117.196" fill="#2AA9E0" width="1.378" height="13.487"></rect> <path fill="#2AA9E0" d="M311.624,123.93c0-0.945,0.146-1.838,0.439-2.679c0.29-0.835,0.727-1.584,1.301-2.243 c0.58-0.658,1.3-1.166,2.164-1.531c0.867-0.372,1.854-0.555,2.963-0.555c1.107,0,2.092,0.183,2.956,0.555 c0.863,0.365,1.584,0.873,2.164,1.531c0.58,0.659,1.017,1.408,1.301,2.243c0.283,0.841,0.43,1.733,0.43,2.679 s-0.146,1.838-0.43,2.68c-0.284,0.841-0.718,1.584-1.294,2.242c-0.58,0.651-1.301,1.173-2.161,1.545 c-0.86,0.378-1.852,0.566-2.966,0.566c-1.115,0-2.105-0.188-2.966-0.566c-0.861-0.372-1.581-0.894-2.161-1.545 c-0.574-0.658-1.011-1.401-1.301-2.242C311.771,125.768,311.624,124.875,311.624,123.93 M313.009,123.937 c0,0.769,0.107,1.499,0.316,2.19c0.212,0.697,0.544,1.329,1,1.903c0.457,0.58,1.037,1.029,1.744,1.355 c0.704,0.326,1.513,0.495,2.422,0.495c1.209,0,2.226-0.28,3.051-0.841c0.827-0.561,1.434-1.29,1.828-2.196 c0.391-0.906,0.587-1.871,0.587-2.907c0-1.023-0.196-1.995-0.587-2.895c-0.395-0.906-1.001-1.636-1.828-2.196 c-0.825-0.561-1.842-0.835-3.051-0.835c-1.216,0-2.233,0.274-3.064,0.835c-0.827,0.561-1.44,1.29-1.831,2.196 C313.204,121.941,313.009,122.913,313.009,123.937"></path> <polygon fill="#2AA9E0" points="332.154,130.684 332.154,117.196 342.192,117.196 342.192,118.285 333.536,118.285 333.536,123.167 341.648,123.167 341.648,124.275 333.536,124.275 333.536,129.575 342.294,129.575 342.294,130.684 "></polygon> <polygon fill="#2AA9E0" points="343.725,130.684 343.725,117.196 345.106,117.196 345.106,129.575 353.258,129.575 353.258,130.684 "></polygon> <polygon fill="#2AA9E0" points="354.164,130.684 354.164,117.196 364.206,117.196 364.206,118.285 355.549,118.285 355.549,123.167 363.658,123.167 363.658,124.275 355.549,124.275 355.549,129.575 364.307,129.575 364.307,130.684 "></polygon> <path fill="#2AA9E0" d="M377.758,121.283h-1.382c-0.121-0.508-0.323-0.971-0.606-1.382c-0.287-0.411-0.622-0.756-1.01-1.03 c-0.389-0.28-0.828-0.488-1.314-0.645c-0.488-0.144-1-0.222-1.538-0.222c-1.212,0-2.239,0.28-3.066,0.841 c-0.828,0.566-1.438,1.29-1.829,2.196c-0.395,0.899-0.587,1.871-0.587,2.895c0,0.769,0.104,1.499,0.316,2.19 c0.212,0.697,0.548,1.329,1.001,1.903c0.453,0.573,1.033,1.029,1.74,1.355s1.513,0.495,2.425,0.495c0.86,0,1.637-0.195,2.314-0.573 c0.681-0.378,1.222-0.899,1.62-1.564c0.403-0.665,0.648-1.395,0.732-2.203h1.386c-0.127,1.089-0.456,2.04-0.981,2.868 c-0.527,0.821-1.231,1.453-2.105,1.891c-0.876,0.443-1.864,0.664-2.966,0.664c-1.114,0-2.103-0.188-2.963-0.566 c-0.866-0.372-1.584-0.894-2.16-1.545c-0.58-0.658-1.011-1.401-1.308-2.242c-0.29-0.842-0.439-1.734-0.439-2.68 s0.149-1.838,0.439-2.679c0.297-0.835,0.728-1.584,1.308-2.243c0.576-0.658,1.297-1.166,2.164-1.531 c0.863-0.372,1.851-0.555,2.959-0.555c0.923,0,1.812,0.17,2.67,0.509c0.854,0.346,1.57,0.848,2.147,1.506 S377.644,120.377,377.758,121.283"></path> <polygon fill="#2AA9E0" points="378.006,118.285 378.006,117.196 389.54,117.196 389.54,118.285 384.462,118.285 384.462,130.684 383.084,130.684 383.084,118.285 "></polygon> <path fill="#2AA9E0" d="M390.404,130.684v-13.487h6.665c0.817,0,1.567,0.124,2.239,0.378c0.671,0.254,1.202,0.646,1.594,1.167 c0.395,0.528,0.586,1.187,0.586,1.969c0,0.886-0.237,1.636-0.727,2.255c-0.485,0.613-1.183,1.011-2.096,1.187v0.039 c0.887,0.104,1.516,0.411,1.894,0.926c0.375,0.515,0.594,1.213,0.646,2.105c0.017,0.319,0.039,0.651,0.062,0.997 c0.017,0.346,0.043,0.665,0.082,0.952c0.036,0.287,0.101,0.573,0.189,0.854c0.091,0.28,0.198,0.496,0.332,0.659h-1.513 c-0.094-0.144-0.173-0.34-0.228-0.594c-0.056-0.248-0.095-0.476-0.107-0.672c-0.017-0.195-0.036-0.476-0.056-0.827 c-0.053-0.796-0.144-1.467-0.268-2.001c-0.127-0.535-0.397-0.984-0.814-1.35c-0.414-0.358-1.023-0.541-1.839-0.541h-5.257v5.984 H390.404z M391.789,118.285v5.312h5.183c0.554,0,1.078-0.104,1.561-0.319c0.489-0.209,0.87-0.516,1.15-0.913 c0.284-0.404,0.428-0.867,0.428-1.395c0-0.841-0.271-1.5-0.809-1.976c-0.541-0.476-1.313-0.71-2.33-0.71H391.789z"></path> <path fill="#2AA9E0" d="M402.714,123.93c0-0.945,0.144-1.838,0.438-2.679c0.293-0.835,0.727-1.584,1.304-2.243 c0.576-0.658,1.3-1.166,2.167-1.531c0.863-0.372,1.848-0.555,2.959-0.555c1.105,0,2.093,0.183,2.957,0.555 c0.863,0.365,1.584,0.873,2.164,1.531c0.58,0.659,1.017,1.408,1.297,2.243c0.287,0.841,0.431,1.733,0.431,2.679 s-0.144,1.838-0.431,2.68c-0.28,0.841-0.717,1.584-1.291,2.242c-0.58,0.651-1.3,1.173-2.16,1.545 c-0.86,0.378-1.852,0.566-2.967,0.566c-1.117,0-2.102-0.188-2.966-0.566c-0.86-0.372-1.584-0.894-2.16-1.545 c-0.577-0.658-1.011-1.401-1.304-2.242C402.857,125.768,402.714,124.875,402.714,123.93 M404.1,123.937 c0,0.769,0.104,1.499,0.316,2.19c0.215,0.697,0.544,1.329,1,1.903c0.456,0.573,1.033,1.029,1.74,1.355 c0.711,0.326,1.516,0.495,2.425,0.495c1.206,0,2.227-0.28,3.051-0.841c0.825-0.561,1.435-1.29,1.825-2.196 c0.392-0.906,0.587-1.871,0.587-2.907c0-1.023-0.195-1.995-0.587-2.895c-0.391-0.906-1-1.63-1.825-2.196 c-0.824-0.561-1.845-0.841-3.051-0.841c-1.212,0-2.235,0.28-3.063,0.841c-0.831,0.566-1.44,1.29-1.831,2.196 C404.295,121.941,404.1,122.913,404.1,123.937 M412.088,113.461l-2.698,2.66h-1.03l2.138-2.66H412.088z"></path> <polygon fill="#2AA9E0" points="418.068,130.684 418.068,117.196 419.613,117.196 428.091,128.61 428.13,128.61 428.13,117.196 429.516,117.196 429.516,130.684 427.974,130.684 419.493,119.275 419.454,119.275 419.454,130.684 "></polygon> <rect x="432.031" y="117.196" fill="#2AA9E0" width="1.379" height="13.487"></rect> <path fill="#2AA9E0" d="M447.97,121.283h-1.382c-0.118-0.508-0.319-0.971-0.606-1.382s-0.623-0.756-1.011-1.03 c-0.388-0.28-0.828-0.488-1.313-0.645c-0.488-0.144-1-0.222-1.535-0.222c-1.216,0-2.239,0.28-3.066,0.841 c-0.831,0.566-1.441,1.29-1.832,2.196c-0.395,0.899-0.587,1.871-0.587,2.895c0,0.769,0.104,1.499,0.316,2.19 c0.215,0.697,0.548,1.329,1.001,1.903c0.456,0.573,1.033,1.029,1.74,1.355c0.71,0.326,1.516,0.495,2.428,0.495 c0.86,0,1.63-0.195,2.311-0.573c0.682-0.378,1.223-0.899,1.624-1.564c0.4-0.665,0.642-1.395,0.729-2.203h1.386 c-0.131,1.089-0.457,2.04-0.981,2.868c-0.528,0.821-1.229,1.453-2.105,1.891c-0.877,0.443-1.864,0.664-2.963,0.664 c-1.121,0-2.105-0.188-2.969-0.566c-0.864-0.372-1.581-0.894-2.158-1.545c-0.576-0.658-1.014-1.401-1.307-2.242 c-0.293-0.842-0.437-1.734-0.437-2.68s0.144-1.838,0.437-2.679c0.293-0.835,0.73-1.584,1.307-2.243 c0.577-0.658,1.298-1.166,2.164-1.531c0.864-0.372,1.852-0.555,2.963-0.555c0.919,0,1.81,0.17,2.663,0.509 c0.857,0.346,1.574,0.848,2.147,1.506C447.513,119.595,447.858,120.377,447.97,121.283"></path> <path fill="#2AA9E0" d="M449.013,123.93c0-0.945,0.146-1.838,0.439-2.679c0.29-0.835,0.724-1.584,1.304-2.243 c0.577-0.658,1.298-1.166,2.164-1.531c0.864-0.372,1.852-0.555,2.96-0.555s2.096,0.183,2.956,0.555 c0.863,0.365,1.584,0.873,2.164,1.531c0.583,0.659,1.014,1.408,1.301,2.243c0.286,0.841,0.427,1.733,0.427,2.679 s-0.141,1.838-0.427,2.68c-0.287,0.841-0.718,1.584-1.294,2.242c-0.58,0.651-1.298,1.173-2.158,1.545 c-0.863,0.378-1.854,0.566-2.969,0.566c-1.115,0-2.103-0.188-2.963-0.566c-0.863-0.372-1.584-0.894-2.161-1.545 c-0.58-0.658-1.014-1.401-1.304-2.242C449.159,125.768,449.013,124.875,449.013,123.93 M450.397,123.937 c0,0.769,0.104,1.499,0.319,2.19c0.212,0.697,0.545,1.329,1.001,1.903c0.453,0.58,1.033,1.029,1.74,1.355s1.513,0.495,2.422,0.495 c1.209,0,2.226-0.28,3.051-0.841c0.824-0.561,1.438-1.29,1.825-2.196c0.391-0.906,0.59-1.871,0.59-2.907 c0-1.023-0.199-1.995-0.59-2.895c-0.388-0.906-1.001-1.636-1.825-2.196c-0.825-0.561-1.842-0.835-3.051-0.835 c-1.213,0-2.232,0.274-3.063,0.835s-1.441,1.29-1.832,2.196C450.593,121.941,450.397,122.913,450.397,123.937"></path> <polygon fill="#1E76BC" points="229.327,156.256 224.806,144.124 226.641,144.124 230.232,154.509 230.282,154.509 233.713,144.124 235.64,144.124 239.085,154.509 239.137,154.509 242.732,144.124 244.551,144.124 240.027,156.256 238.156,156.256 234.698,146.061 234.649,146.061 231.214,156.256 "></polygon> <polygon fill="#1E76BC" points="252.232,156.256 247.716,144.124 249.551,144.124 253.139,154.509 253.191,154.509 256.62,144.124 258.55,144.124 261.991,154.509 262.043,154.509 265.639,144.124 267.46,144.124 262.937,156.256 261.065,156.256 257.604,146.061 257.556,146.061 254.123,156.256 "></polygon> <polygon fill="#1E76BC" points="275.146,156.256 270.622,144.124 272.457,144.124 276.045,154.509 276.101,154.509 279.532,144.124 281.459,144.124 284.904,154.509 284.956,154.509 288.548,144.124 290.37,144.124 285.85,156.256 283.972,156.256 280.517,146.061 280.462,146.061 277.033,156.256 "></polygon> <rect x="294.46" y="153.766" fill="#1E76BC" width="2.288" height="2.49"></rect> <path fill="#1E76BC" d="M315.362,147.925h-1.715c-0.231-0.926-0.678-1.643-1.346-2.151c-0.662-0.508-1.542-0.763-2.631-0.763 c-0.788,0-1.499,0.15-2.128,0.437c-0.629,0.287-1.144,0.672-1.552,1.154c-0.4,0.482-0.707,1.036-0.919,1.655 c-0.215,0.633-0.319,1.265-0.319,1.917c0,0.887,0.183,1.733,0.558,2.529c0.368,0.802,0.932,1.447,1.682,1.936 c0.75,0.489,1.643,0.73,2.679,0.73c1.062,0,1.985-0.326,2.768-0.979c0.779-0.651,1.223-1.479,1.33-2.489h1.711 c-0.104,0.724-0.323,1.375-0.658,1.962c-0.333,0.593-0.75,1.089-1.249,1.492c-0.502,0.404-1.082,0.718-1.74,0.926 c-0.665,0.222-1.379,0.326-2.161,0.326c-1.392,0-2.588-0.287-3.592-0.86c-1-0.573-1.76-1.35-2.271-2.327 c-0.518-0.972-0.769-2.054-0.769-3.246c0-0.88,0.14-1.701,0.427-2.478c0.29-0.769,0.72-1.453,1.287-2.04s1.265-1.05,2.099-1.382 c0.835-0.333,1.771-0.502,2.819-0.502c1.021,0,1.939,0.156,2.751,0.47c0.818,0.312,1.479,0.781,1.995,1.407 C314.932,146.282,315.245,147.038,315.362,147.925"></path> <path fill="#1E76BC" d="M322.154,147.834h-1.718c0.082-1.363,0.629-2.38,1.646-3.051c1.014-0.672,2.362-1.011,4.048-1.011 c3.448,0,5.172,1.297,5.172,3.892v6.453c0,0.587,0.333,0.88,1.011,0.88c0.18,0,0.355-0.032,0.531-0.091v1.258 c-0.326,0.065-0.697,0.092-1.102,0.092c-0.821,0-1.355-0.17-1.623-0.516s-0.401-0.88-0.401-1.597h-0.052 c-0.665,0.867-1.369,1.499-2.115,1.884c-0.746,0.391-1.747,0.58-3.005,0.58c-0.887,0-1.686-0.124-2.393-0.385 c-0.711-0.261-1.274-0.651-1.688-1.192c-0.417-0.541-0.626-1.193-0.626-1.969c0-0.815,0.206-1.467,0.62-1.956 c0.41-0.482,0.964-0.847,1.658-1.102c0.698-0.247,1.359-0.417,1.988-0.502c0.629-0.078,1.721-0.195,3.272-0.352 c0.548-0.053,0.972-0.124,1.271-0.209c0.296-0.084,0.524-0.247,0.69-0.469c0.163-0.229,0.245-0.548,0.245-0.972 c0-0.938-0.33-1.591-0.988-1.949c-0.665-0.358-1.561-0.541-2.691-0.541c-1.112,0-2.008,0.241-2.689,0.711 C322.532,146.197,322.181,146.901,322.154,147.834 M329.586,151.549v-1.93h-0.056c-0.092,0.163-0.271,0.274-0.528,0.346 c-0.257,0.072-0.563,0.137-0.919,0.189c-0.991,0.137-2.021,0.287-3.087,0.443c-1.059,0.156-1.899,0.41-2.516,0.763 c-0.619,0.345-0.926,0.886-0.926,1.616c0,0.45,0.144,0.867,0.431,1.232c0.29,0.378,0.674,0.658,1.153,0.86s0.991,0.3,1.542,0.3 c0.866,0,1.678-0.15,2.435-0.457c0.749-0.306,1.353-0.749,1.799-1.329C329.364,153.003,329.586,152.325,329.586,151.549"></path> <path fill="#1E76BC" d="M349.076,147.925h-1.715c-0.228-0.926-0.678-1.643-1.343-2.151c-0.665-0.508-1.541-0.763-2.633-0.763 c-0.786,0-1.496,0.15-2.125,0.437c-0.63,0.287-1.145,0.672-1.552,1.154c-0.401,0.482-0.711,1.036-0.926,1.655 c-0.209,0.633-0.316,1.265-0.316,1.917c0,0.887,0.187,1.733,0.558,2.529c0.371,0.802,0.936,1.447,1.682,1.936 c0.75,0.489,1.643,0.73,2.68,0.73c1.062,0,1.987-0.326,2.767-0.979c0.782-0.651,1.226-1.479,1.33-2.489h1.714 c-0.104,0.724-0.322,1.375-0.654,1.962c-0.333,0.593-0.75,1.089-1.252,1.492c-0.502,0.404-1.082,0.718-1.744,0.926 c-0.661,0.222-1.378,0.326-2.16,0.326c-1.393,0-2.588-0.287-3.589-0.86s-1.76-1.35-2.271-2.327 c-0.519-0.972-0.772-2.054-0.772-3.246c0-0.88,0.144-1.701,0.43-2.478c0.29-0.769,0.718-1.453,1.284-2.04 c0.567-0.587,1.265-1.05,2.1-1.382c0.834-0.333,1.776-0.502,2.819-0.502c1.023,0,1.938,0.156,2.754,0.47 c0.814,0.312,1.482,0.781,1.994,1.407C348.649,146.282,348.962,147.038,349.076,147.925"></path> <path fill="#1E76BC" d="M366.132,150.61h-10.808c0.017,1.238,0.414,2.34,1.192,3.312c0.772,0.965,1.92,1.447,3.436,1.447 c1.196,0,2.164-0.273,2.897-0.835c0.737-0.547,1.242-1.304,1.52-2.262h1.711c-0.192,0.704-0.453,1.317-0.789,1.845 c-0.332,0.535-0.75,0.991-1.258,1.362c-0.506,0.378-1.096,0.659-1.767,0.848c-0.675,0.189-1.444,0.28-2.314,0.28 c-1.092,0-2.037-0.163-2.839-0.495c-0.802-0.333-1.463-0.802-1.981-1.389c-0.519-0.593-0.902-1.271-1.15-2.054 c-0.251-0.775-0.372-1.609-0.372-2.496c0-0.809,0.124-1.604,0.379-2.373c0.251-0.775,0.635-1.46,1.15-2.066 c0.515-0.606,1.173-1.082,1.984-1.434c0.815-0.353,1.757-0.528,2.829-0.528s1.998,0.176,2.777,0.534 c0.782,0.358,1.424,0.854,1.93,1.48c0.505,0.632,0.876,1.355,1.114,2.164C366.015,148.766,366.132,149.652,366.132,150.61 M355.324,149.346h9.097c-0.026-0.743-0.222-1.453-0.587-2.118c-0.365-0.672-0.877-1.213-1.541-1.61 c-0.665-0.404-1.447-0.606-2.341-0.606c-0.887,0-1.669,0.202-2.34,0.606c-0.675,0.397-1.199,0.932-1.574,1.591 C355.66,147.866,355.422,148.583,355.324,149.346"></path> <rect x="372.182" y="153.766" fill="#1E76BC" width="2.287" height="2.49"></rect> <path fill="#1E76BC" d="M387.393,143.772c1.053,0,2.004,0.169,2.845,0.502c0.841,0.346,1.539,0.802,2.096,1.382 c0.555,0.58,0.975,1.258,1.269,2.04c0.293,0.782,0.439,1.61,0.439,2.478c0,1.192-0.257,2.274-0.769,3.246 c-0.516,0.978-1.278,1.754-2.278,2.327c-1.001,0.573-2.2,0.86-3.602,0.86c-1.392,0-2.588-0.287-3.589-0.86 c-1.004-0.573-1.763-1.35-2.278-2.327c-0.512-0.972-0.769-2.054-0.769-3.246c0-0.88,0.146-1.701,0.433-2.478 c0.287-0.769,0.714-1.453,1.284-2.04c0.564-0.587,1.265-1.05,2.1-1.382C385.404,143.941,386.346,143.772,387.393,143.772 M387.393,145.011c-0.789,0-1.5,0.15-2.129,0.437c-0.625,0.287-1.144,0.672-1.545,1.154c-0.407,0.482-0.714,1.036-0.929,1.655 c-0.212,0.633-0.316,1.265-0.316,1.917c0,0.887,0.183,1.733,0.558,2.529c0.368,0.802,0.933,1.447,1.679,1.936 c0.753,0.489,1.646,0.73,2.683,0.73c1.046,0,1.942-0.241,2.691-0.73c0.75-0.488,1.311-1.134,1.683-1.936 c0.374-0.796,0.557-1.643,0.557-2.529c0-0.652-0.107-1.291-0.325-1.923c-0.216-0.626-0.525-1.181-0.923-1.649 c-0.4-0.476-0.916-0.86-1.542-1.147C388.904,145.161,388.188,145.011,387.393,145.011"></path> <path fill="#1E76BC" d="M399.328,156.256v-12.132h1.587v2.843h0.052c0.434-0.965,1.096-1.715,1.985-2.223 c0.893-0.521,2.001-0.776,3.318-0.776v1.467c-1.057,0-1.979,0.195-2.771,0.58c-0.796,0.385-1.401,0.906-1.822,1.564 c-0.424,0.658-0.636,1.389-0.636,2.21v6.467H399.328z"></path> <path fill="#1E76BC" d="M422.505,144.124v11.153c-0.017,1.271-0.229,2.327-0.633,3.175c-0.404,0.854-1.062,1.506-1.975,1.962 c-0.913,0.463-2.122,0.685-3.628,0.685c-1.004,0-1.926-0.124-2.773-0.385c-0.848-0.254-1.548-0.665-2.103-1.206 c-0.554-0.554-0.87-1.238-0.948-2.066h1.714c0.177,0.828,0.643,1.447,1.398,1.839c0.75,0.385,1.656,0.587,2.712,0.587 c3.012,0,4.521-1.532,4.521-4.59v-1.643h-0.052c-0.411,0.756-1.008,1.362-1.8,1.812c-0.785,0.449-1.678,0.678-2.669,0.678 c-1.447,0-2.644-0.28-3.595-0.821c-0.948-0.541-1.64-1.284-2.086-2.216c-0.443-0.933-0.662-2.002-0.662-3.208 c0-1.114,0.251-2.138,0.75-3.076c0.502-0.933,1.229-1.676,2.187-2.217c0.959-0.541,2.093-0.814,3.406-0.814 c0.991,0,1.894,0.234,2.712,0.704c0.812,0.463,1.401,1.043,1.757,1.74h0.052v-2.093H422.505z M416.27,154.86 c0.929,0,1.74-0.228,2.438-0.678c0.697-0.45,1.215-1.043,1.561-1.786c0.349-0.736,0.521-1.525,0.521-2.359 c0-0.821-0.159-1.623-0.473-2.399c-0.315-0.782-0.814-1.408-1.496-1.896c-0.685-0.482-1.535-0.73-2.552-0.73 c-1.04,0-1.903,0.235-2.591,0.704c-0.694,0.47-1.206,1.089-1.542,1.852c-0.329,0.763-0.495,1.584-0.495,2.471 c0,0.847,0.169,1.643,0.508,2.379c0.346,0.736,0.864,1.323,1.559,1.773C414.402,154.639,415.256,154.86,416.27,154.86"></path> <rect x="429.512" y="153.766" fill="#1E76BC" width="2.285" height="2.49"></rect> <path fill="#1E76BC" d="M440.346,147.834h-1.718c0.082-1.363,0.626-2.38,1.643-3.051c1.018-0.672,2.363-1.011,4.052-1.011 c3.445,0,5.169,1.297,5.169,3.892v6.453c0,0.587,0.339,0.88,1.011,0.88c0.18,0,0.355-0.032,0.534-0.091v1.258 c-0.329,0.065-0.694,0.092-1.107,0.092c-0.812,0-1.354-0.17-1.62-0.516c-0.268-0.346-0.397-0.88-0.397-1.597h-0.056 c-0.662,0.867-1.369,1.499-2.112,1.884c-0.743,0.391-1.747,0.58-3.005,0.58c-0.887,0-1.686-0.124-2.393-0.385 c-0.71-0.261-1.274-0.651-1.691-1.192c-0.414-0.541-0.626-1.193-0.626-1.969c0-0.815,0.212-1.467,0.623-1.956 c0.41-0.482,0.961-0.847,1.662-1.102c0.694-0.247,1.355-0.417,1.988-0.502c0.626-0.078,1.718-0.195,3.269-0.352 c0.551-0.053,0.975-0.124,1.271-0.209c0.297-0.084,0.524-0.247,0.69-0.469c0.163-0.229,0.245-0.548,0.245-0.972 c0-0.938-0.329-1.591-0.991-1.949c-0.658-0.358-1.558-0.541-2.692-0.541c-1.107,0-2.001,0.241-2.686,0.711 C440.724,146.197,440.372,146.901,440.346,147.834 M447.777,151.549v-1.93h-0.053c-0.101,0.163-0.276,0.274-0.531,0.346 c-0.261,0.072-0.563,0.137-0.915,0.189c-0.998,0.137-2.021,0.287-3.087,0.443c-1.062,0.156-1.903,0.41-2.52,0.763 c-0.619,0.345-0.926,0.886-0.926,1.616c0,0.45,0.144,0.867,0.434,1.232c0.287,0.378,0.672,0.658,1.147,0.86 c0.479,0.202,0.994,0.3,1.541,0.3c0.871,0,1.683-0.15,2.436-0.457c0.753-0.306,1.355-0.749,1.806-1.329 C447.556,153.003,447.777,152.325,447.777,151.549"></path> <path fill="#1E76BC" d="M455.648,156.256v-12.132h1.581v2.843h0.055c0.434-0.965,1.096-1.715,1.988-2.223 c0.887-0.521,1.995-0.776,3.318-0.776v1.467c-1.06,0-1.981,0.195-2.777,0.58c-0.792,0.385-1.401,0.906-1.818,1.564 c-0.421,0.658-0.633,1.389-0.633,2.21v6.467H455.648z"></path> <g> <path fill="#2AA9E0" d="M148.17,89.42c-0.127-0.378-0.16-0.782-0.098-1.219c0.065-0.437,0.098-0.782,0.098-1.03v-1.695 c-0.261-1.004-0.427-2.066-0.492-3.188c-0.068-1.127-0.169-2.255-0.3-3.383c-0.261-0.998-0.463-1.969-0.597-2.908 c-0.13-0.932-0.333-1.903-0.596-2.907c-0.531-1.753-0.998-3.474-1.392-5.163c-0.397-1.688-0.925-3.279-1.59-4.785 c-0.662-1.623-1.359-3.252-2.089-4.882c-0.727-1.617-1.555-3.129-2.483-4.504c-1.669-2.757-3.396-5.228-5.153-7.522 c-0.473-0.619-0.932-1.278-1.408-1.864c-0.662-0.867-1.395-1.688-2.184-2.438c-0.795-0.75-1.594-1.499-2.386-2.255 c-3.315-3.123-6.796-5.782-10.437-7.972c-2.767-1.662-5.909-3.155-9.243-4.563l0,0c-1.069-0.45-2.063-0.926-3.181-1.35 c-1.594-0.625-3.25-1.154-4.974-1.597c-1.724-0.437-3.51-0.841-5.365-1.219c-0.799-0.248-1.591-0.378-2.389-0.378 c-0.792,0-1.519-0.124-2.184-0.372c-1.06-0.124-2.089-0.215-3.08-0.287c-0.994-0.059-2.021-0.15-3.086-0.274 c-0.261-0.124-0.593-0.124-0.994,0c-0.398,0.124-0.724,0.124-0.991,0c-13.917-0.248-25.38,2.001-34.396,6.753 c-9.009,4.759-16.163,11.075-21.469,18.963c-1.454,2.125-2.646,4.283-3.579,6.473c-0.925,2.19-1.789,4.596-2.584,7.223 c-0.261,0.88-0.524,1.877-0.792,3.005c-0.267,1.127-0.202,2.19,0.199,3.188c0.268,0.756,0.766,1.226,1.493,1.415 c0.727,0.182,1.558,0.404,2.484,0.658h1.587c0.795,0.248,1.691,0.339,2.686,0.274c0.991-0.059,1.956-0.098,2.884-0.098 c1.193,0,2.614,0.039,4.273,0.098c1.659,0.065,3.276,0.065,4.87,0c1.59-0.059,3.05-0.189,4.374-0.372 c1.326-0.189,2.32-0.469,2.982-0.848c1.062-0.874,1.854-2.066,2.383-3.565c0.534-1.5,1.196-2.816,1.991-3.944 c2.52-4.126,5.831-7.379,9.935-9.758c2.787-1.623,5.899-2.94,9.344-3.944c2.259-0.743,5.071-1.127,8.451-1.127 c1.235,0,2.35,0.084,3.465,0.176c1.949,0.144,3.787,0.372,5.384,0.769c1.059,0.248,2.021,0.463,2.881,0.652 c0.863,0.196,1.76,0.47,2.686,0.848c6.147,2.477,11.026,6.082,14.709,10.762c2.761-3.51,6.196-6.415,10.335-8.692 c-4.14,2.278-7.575,5.182-10.332,8.692c1.711,2.19,3.194,4.589,4.374,7.255c0.665,1.506,1.258,3.064,1.783,4.693 c0.535,1.63,2.458,9.074,2.588,9.948c0.267,0.756,0.329,4.002,0.6,4.882c0.261,0.997,0.196,5.188,0.196,6.192 c0,0.502,0.036,1.004,0.098,1.499c0.072,0.502,0.036,1.004-0.098,1.5c0,0-0.365,2.946-0.297,3.565 c0.065,0.626-0.033,1.252-0.303,1.877c0,0.75-0.127,1.761-0.394,3.006c-0.264,1.375-0.531,2.659-0.795,3.846 c-0.264,1.192-0.596,2.347-0.994,3.475c-1.763,5.006-4.028,9.282-6.756,12.867c0.134,0.176,0.257,0.372,0.388,0.555 c2.914,3.689,6.76,6.727,11.535,9.1c1.457,0.626,2.979,1.16,4.569,1.597c1.594,0.437,3.312,0.906,5.169,1.408 c0.658,0.124,1.291,0.215,1.894,0.28c0.59,0.065,1.219,0.092,1.881,0.092h0.57c3.243-4.113,6.065-8.65,8.379-13.696 c0.795-1.877,1.463-3.761,1.992-5.632c0.528-1.877,1.127-3.813,1.789-5.821c0.271-0.626,0.398-1.153,0.398-1.597 c0-0.437,0.065-0.899,0.199-1.408c0.267-1.128,0.466-2.314,0.6-3.565c0.134-1.252,0.326-2.438,0.593-3.565 c0.267-0.626,0.362-1.154,0.296-1.598c-0.062-0.437-0.029-0.899,0.098-1.401v-3.565c0.271-0.626,0.404-1.564,0.404-2.816 C148.574,90.985,148.441,90.046,148.17,89.42z"></path> <path fill="#2AA9E0" d="M86.843,142.632c-1.806-1.786-3.455-3.723-5.039-5.729h-1.023c-0.665,0.247-1.525,0.345-2.584,0.279 c-1.06-0.059-1.92-0.149-2.585-0.279c-0.792,0-1.388-0.06-1.792-0.189c-1.584-0.248-3.077-0.495-4.472-0.75 c-1.392-0.241-2.748-0.685-4.078-1.31c-3.041-1.252-5.661-2.914-7.848-4.98c-2.19-2.06-4.139-4.407-5.867-7.027 c-0.795-1.258-1.454-2.634-1.985-4.139c-0.528-1.5-1.128-2.999-1.79-4.498c-0.397-1.376-0.795-2.627-1.193-3.755 c-0.397-1.128-1.255-2.001-2.584-2.634c-0.795-0.247-1.79-0.371-2.982-0.371h-3.383H25.517h-3.68c-1.258,0-2.288,0.247-3.08,0.749 c-0.926,0.626-1.424,1.63-1.489,3.006c-0.069,1.382,0.094,2.691,0.495,3.937l1.193,5.071c0.662,1.878,1.294,3.696,1.887,5.45 c0.597,1.747,1.359,3.435,2.288,5.059c0.665,1.004,1.189,1.975,1.587,2.913c0.401,0.939,0.936,1.845,1.594,2.719 c7.291,10.762,17.89,18.271,31.807,22.521c1.457,0.502,2.914,0.873,4.374,1.128c1.457,0.247,2.917,0.502,4.374,0.749 c0.659,0.248,1.288,0.346,1.887,0.281c0.593-0.065,1.226,0.032,1.884,0.286c0.932,0,1.829,0.026,2.689,0.092 c0.864,0.059,1.76,0.149,2.683,0.28h3.181h3.579c1.196,0,2.317-0.131,3.38-0.372c0.397-0.13,1.062-0.188,1.988-0.188 c0.929-0.131,1.854-0.255,2.784-0.379c0.926-0.123,1.919-0.247,2.979-0.378c1.327-0.371,2.621-0.685,3.878-0.932 c1.261-0.261,2.552-0.567,3.875-0.938c1.193-0.379,2.386-0.782,3.579-1.22c0.913-0.339,1.747-0.71,2.584-1.075 c-0.257-0.117-0.551-0.222-0.798-0.339C99.069,152.423,92.335,148.068,86.843,142.632z"></path> </g> <path fill="#1E76BC" d="M248.24,24.671c5.948-0.143,10.925,0.717,14.931,2.582c4.003,1.864,7.181,4.524,9.53,7.966 c1.177,1.721,2.054,3.696,2.644,5.918c0.146,0.365,0.276,0.828,0.385,1.402c0.11,0.573,0.094,1.075-0.053,1.506 c-0.297,0.795-0.812,1.238-1.542,1.343c-0.736,0.11-1.619,0.163-2.646,0.163h-5.732h-2.034c-0.697,0-1.268-0.143-1.708-0.43 c-0.59-0.28-0.994-0.736-1.216-1.343c-0.218-0.606-0.512-1.238-0.88-1.89c-0.439-0.782-0.919-1.5-1.431-2.151 c-0.515-0.645-1.102-1.212-1.767-1.721c-1.026-0.646-2.164-1.147-3.412-1.506c-0.443-0.144-0.88-0.208-1.32-0.208 c-0.443,0-0.848-0.079-1.216-0.222h-1.102c-1.47,0-2.644,0.143-3.526,0.43c-2.128,0.645-3.855,1.629-5.179,2.959 c-1.323,1.33-2.386,2.927-3.194,4.791c-0.369,0.789-0.646,1.636-0.828,2.529c-0.183,0.899-0.384,1.851-0.606,2.855 c-0.072,0.287-0.108,0.574-0.108,0.86c0,0.287-0.039,0.574-0.114,0.861c-0.144,0.71-0.199,1.721-0.163,3.011 c0.039,1.291,0.13,2.301,0.277,3.018c0,0.574,0.036,0.965,0.108,1.18c0.146,0.502,0.238,1.004,0.277,1.512 c0.036,0.502,0.127,1.004,0.277,1.506c0.583,1.649,1.281,3.155,2.093,4.517c0.805,1.363,1.838,2.516,3.086,3.442 c0.293,0.215,0.73,0.469,1.323,0.756c0.805,0.502,1.63,0.821,2.478,0.971c0.841,0.144,1.89,0.287,3.139,0.43h0.661 c0.294,0,0.512-0.039,0.662-0.111h0.99c0.516-0.144,1.011-0.267,1.489-0.372c0.477-0.104,0.933-0.234,1.376-0.378 c2.203-0.932,3.895-2.294,5.068-4.094c0.296-0.358,0.554-0.769,0.772-1.239c0.222-0.462,0.4-0.873,0.551-1.232 c0.293-0.789,0.551-1.493,0.769-2.105c0.222-0.606,0.733-1.088,1.549-1.447c0.658-0.287,1.724-0.417,3.19-0.378 c1.47,0.033,2.683,0.052,3.638,0.052c0.512,0,1.046-0.02,1.601-0.052c0.547-0.039,1.007,0.02,1.375,0.157h0.883 c0.294,0.078,0.587,0.13,0.881,0.169c0.29,0.033,0.512,0.117,0.661,0.267c0.365,0.287,0.604,0.698,0.714,1.232 c0.11,0.541,0.091,1.095-0.056,1.669c-0.658,2.366-1.467,4.485-2.421,6.355c-3.012,5.528-7.823,9.367-14.433,11.519 c-0.74,0.208-1.513,0.372-2.314,0.482c-0.814,0.104-1.619,0.267-2.428,0.482c-0.443,0.071-0.88,0.111-1.323,0.111 c-0.437,0-0.877,0.032-1.32,0.104h-1.212c-0.368,0.144-0.92,0.202-1.652,0.163c-0.737-0.039-1.288-0.091-1.653-0.163 c-0.586-0.144-1.121-0.195-1.597-0.163c-0.482,0.04-0.975-0.02-1.489-0.163c-0.368-0.065-0.733-0.124-1.099-0.157 c-0.371-0.039-0.74-0.091-1.104-0.163c-0.809-0.215-1.581-0.431-2.314-0.646c-0.733-0.215-1.431-0.463-2.092-0.756 c-3.455-1.434-6.353-3.279-8.706-5.541c-2.35-2.262-4.263-5.078-5.73-8.448c-0.365-0.652-0.662-1.35-0.883-2.099 c-0.218-0.756-0.437-1.525-0.658-2.314c-0.075-0.287-0.111-0.554-0.111-0.808c0-0.254-0.075-0.554-0.222-0.913 c-0.147-0.509-0.218-1.03-0.218-1.564c0-0.541-0.075-1.056-0.222-1.564v-1.825c-0.147-0.359-0.222-0.77-0.222-1.239 c0-0.463,0.075-0.88,0.222-1.239c0.075-0.358,0.075-0.684,0-0.971c-0.072-0.28-0.072-0.567,0-0.854 c0.146-0.501,0.199-0.971,0.166-1.401c-0.039-0.43,0.016-0.86,0.163-1.291c0.368-1.291,0.665-2.529,0.883-3.715 c0.218-1.187,0.551-2.354,0.991-3.501c1.617-3.657,3.657-6.708,6.118-9.146s5.6-4.413,9.419-5.919 c1.026-0.437,2.092-0.736,3.197-0.919c1.102-0.176,2.239-0.411,3.412-0.697c0.59-0.072,1.138-0.104,1.656-0.104 C247.096,24.782,247.65,24.743,248.24,24.671"></path> <path fill="#1E76BC" d="M335.944,77.413c0.146,0.789,0.241,1.578,0.277,2.373c0.039,0.782-0.349,1.323-1.157,1.61 c-0.44,0.215-0.955,0.319-1.542,0.319h-1.763h-5.948c-0.665,0-1.308-0.013-1.933-0.052c-0.623-0.04-1.118-0.196-1.486-0.482 c-0.516-0.287-0.899-0.698-1.157-1.239c-0.254-0.534-0.606-0.984-1.046-1.343c-0.147-0.144-0.33-0.274-0.552-0.378 c-0.221-0.111-0.515-0.124-0.88-0.052c-0.368,0.144-0.717,0.319-1.046,0.535c-0.332,0.215-0.678,0.397-1.05,0.541 c-0.368,0.287-0.769,0.541-1.209,0.75c-0.443,0.215-0.883,0.437-1.323,0.652c-0.955,0.43-1.949,0.769-2.976,1.017 c-1.026,0.254-2.093,0.521-3.194,0.808c-0.515,0.144-1.01,0.235-1.486,0.267c-0.482,0.04-0.978,0.091-1.489,0.163 c-0.225,0-0.44,0.02-0.661,0.052c-0.219,0.033-0.44,0.059-0.662,0.059h-1.213c-0.736,0.144-1.466,0.144-2.199,0h-0.994 c-0.519-0.144-1.014-0.202-1.49-0.163c-0.476,0.033-0.935-0.02-1.375-0.163c-0.736-0.144-1.431-0.268-2.096-0.378 c-0.658-0.104-1.281-0.3-1.874-0.593c-2.132-0.782-3.947-1.805-5.453-3.063c-1.506-1.251-2.698-2.927-3.578-5.006 c-0.222-0.502-0.428-1.043-0.606-1.617c-0.186-0.574-0.353-1.18-0.495-1.825c-0.15-0.358-0.206-0.717-0.163-1.076 c0.032-0.358,0.013-0.723-0.059-1.075c-0.075-0.215-0.131-0.671-0.167-1.35c-0.039-0.685-0.02-1.167,0.056-1.454 c0.146-0.717,0.222-1.323,0.222-1.832c0.219-0.782,0.44-1.591,0.662-2.418c0.218-0.828,0.512-1.564,0.88-2.21 c1.248-2.079,2.679-3.657,4.296-4.739c1.616-1.076,3.673-2.001,6.173-2.796c0.951-0.359,1.945-0.606,2.976-0.75 c1.026-0.15,2.05-0.326,3.087-0.541c0.586-0.137,1.212-0.228,1.87-0.267c0.662-0.033,1.32-0.124,1.985-0.267 c0.509-0.144,1.026-0.196,1.542-0.163c0.512,0.033,1.062-0.013,1.652-0.163c0.512-0.144,1.026-0.215,1.541-0.215 c0.516,0,1.066-0.072,1.652-0.215c1.542-0.358,2.957-0.665,4.241-0.913c1.287-0.248,2.444-0.88,3.474-1.884 c0.659-0.646,1.102-1.362,1.32-2.158c0.071-0.208,0.091-0.391,0.059-0.535c-0.039-0.143-0.022-0.287,0.052-0.43 c0.072-0.144,0.111-0.358,0.111-0.646v-0.645c-0.075-0.287-0.131-0.574-0.163-0.86c-0.039-0.287-0.095-0.541-0.169-0.756 c-0.733-2.151-2.275-3.625-4.629-4.413c-0.658-0.215-1.45-0.378-2.366-0.482c-0.922-0.111-1.854-0.144-2.81-0.111 c-0.958,0.039-1.874,0.124-2.754,0.268c-0.883,0.15-1.655,0.326-2.314,0.541c-0.439,0.143-0.863,0.345-1.268,0.593 c-0.404,0.254-0.788,0.521-1.157,0.808c-0.368,0.287-0.753,0.678-1.156,1.18c-0.404,0.502-0.682,0.971-0.828,1.402 c-0.368,0.717-0.682,1.401-0.936,2.046c-0.258,0.646-0.789,1.076-1.597,1.291c-0.591,0.143-1.213,0.215-1.874,0.215h-1.982h-4.188 c-0.372,0-0.737,0.02-1.102,0.052c-0.369,0.039-0.698,0.02-0.991-0.052h-0.991c-0.149-0.072-0.332-0.111-0.551-0.111 c-0.222,0-0.407-0.071-0.554-0.215c-0.587-0.144-0.991-0.606-1.213-1.395c-0.074-0.358-0.074-0.717,0-1.076 c0.075-0.358,0.147-0.685,0.222-0.971c0.222-0.789,0.457-1.519,0.714-2.203c0.261-0.685,0.567-1.311,0.938-1.891 c0.222-0.358,0.443-0.71,0.662-1.076c0.219-0.352,0.439-0.71,0.661-1.075c0.584-0.789,1.323-1.539,2.204-2.256 c0.146-0.071,0.368-0.254,0.661-0.541c0.365-0.287,0.694-0.541,0.991-0.756c0.29-0.208,0.622-0.43,0.99-0.646 c1.249-0.789,2.572-1.415,3.967-1.877c1.396-0.469,2.829-0.919,4.299-1.349c0.88-0.215,1.8-0.358,2.754-0.43 c0.952-0.072,1.91-0.215,2.865-0.43c0.293-0.072,0.75-0.072,1.376,0c0.625,0.071,1.01,0.039,1.156-0.104 c3.016-0.078,5.896,0.033,8.65,0.319c2.758,0.287,5.251,0.821,7.493,1.617c2.242,0.789,4.172,1.845,5.785,3.174 c1.617,1.33,2.865,3.031,3.745,5.111c0.515,1.219,0.809,2.621,0.883,4.198c0.072,1.578,0.111,3.194,0.111,4.844v24.008v4.139 c0,1.401,0.144,2.672,0.439,3.82c0.072,0.215,0.114,0.45,0.114,0.704C335.84,76.963,335.873,77.198,335.944,77.413 M319.749,60.836 c0.071-0.358,0.11-0.769,0.11-1.232c0-0.469-0.039-0.88-0.11-1.238c-0.15-0.437-0.222-0.828-0.222-1.187s-0.146-0.652-0.443-0.86 c-0.365-0.287-0.916-0.437-1.649-0.437c-0.293,0.072-0.551,0.13-0.772,0.163c-0.218,0.039-0.476,0.091-0.769,0.163 c-0.516,0.143-1.066,0.254-1.652,0.319c-0.591,0.078-1.177,0.183-1.767,0.326c-0.219,0.072-0.548,0.111-0.988,0.111 c-0.958,0.215-1.913,0.359-2.868,0.43c-0.955,0.072-1.874,0.254-2.754,0.535c-0.59,0.144-1.138,0.267-1.652,0.378 s-1.026,0.268-1.542,0.482c-1.541,0.646-2.849,1.617-3.911,2.907c-1.065,1.297-1.45,3.083-1.156,5.384 c0.146,1.219,0.551,2.223,1.212,3.012c0.515,0.789,1.287,1.415,2.314,1.884c1.026,0.463,2.147,0.809,3.36,1.023 c1.212,0.215,2.496,0.268,3.858,0.163c1.356-0.111,2.621-0.339,3.798-0.704c1.909-0.567,3.415-1.486,4.517-2.744 c1.102-1.251,1.949-2.81,2.536-4.68c0.146-0.502,0.238-1.023,0.273-1.564c0.036-0.535,0.127-1.089,0.277-1.663V60.836z"></path> <path fill="#1E76BC" d="M372.526,24.671c5.952-0.143,10.929,0.717,14.931,2.582c4.006,1.864,7.181,4.524,9.534,7.966 c1.173,1.721,2.057,3.696,2.643,5.918c0.147,0.365,0.277,0.828,0.385,1.402c0.111,0.573,0.092,1.075-0.052,1.506 c-0.294,0.795-0.809,1.238-1.545,1.343c-0.733,0.11-1.617,0.163-2.644,0.163h-5.729h-2.037c-0.701,0-1.268-0.143-1.708-0.43 c-0.593-0.28-0.994-0.736-1.213-1.343c-0.218-0.606-0.515-1.238-0.883-1.89c-0.44-0.782-0.919-1.5-1.435-2.151 c-0.512-0.645-1.098-1.212-1.763-1.721c-1.026-0.646-2.164-1.147-3.413-1.506c-0.439-0.144-0.883-0.208-1.323-0.208 c-0.442,0-0.844-0.079-1.212-0.222h-1.102c-1.47,0-2.644,0.143-3.526,0.43c-2.132,0.645-3.856,1.629-5.18,2.959 c-1.319,1.33-2.386,2.927-3.193,4.791c-0.369,0.789-0.646,1.636-0.825,2.529c-0.186,0.899-0.388,1.851-0.609,2.855 c-0.071,0.287-0.107,0.574-0.107,0.86c0,0.287-0.039,0.574-0.114,0.861c-0.146,0.71-0.202,1.721-0.163,3.011 c0.036,1.291,0.131,2.301,0.277,3.018c0,0.574,0.036,0.965,0.107,1.18c0.146,0.502,0.238,1.004,0.277,1.512 c0.035,0.502,0.127,1.004,0.273,1.506c0.59,1.649,1.287,3.155,2.096,4.517c0.809,1.363,1.835,2.516,3.087,3.442 c0.293,0.215,0.729,0.469,1.319,0.756c0.809,0.502,1.634,0.821,2.48,0.971c0.841,0.144,1.891,0.287,3.139,0.43h0.662 c0.293,0,0.512-0.039,0.661-0.111h0.991c0.515-0.144,1.011-0.267,1.489-0.372c0.476-0.104,0.936-0.234,1.376-0.378 c2.203-0.932,3.895-2.294,5.067-4.094c0.294-0.358,0.555-0.769,0.772-1.239c0.222-0.462,0.404-0.873,0.555-1.232 c0.29-0.789,0.548-1.493,0.769-2.105c0.219-0.606,0.733-1.088,1.542-1.447c0.662-0.287,1.728-0.417,3.197-0.378 c1.467,0.033,2.68,0.052,3.635,0.052c0.512,0,1.046-0.02,1.597-0.052c0.551-0.039,1.011,0.02,1.379,0.157h0.88 c0.293,0.078,0.59,0.13,0.883,0.169c0.294,0.033,0.509,0.117,0.658,0.267c0.369,0.287,0.606,0.698,0.718,1.232 c0.11,0.541,0.091,1.095-0.053,1.669c-0.665,2.366-1.47,4.485-2.425,6.355c-3.015,5.528-7.822,9.367-14.436,11.519 c-0.736,0.208-1.509,0.372-2.313,0.482c-0.809,0.104-1.617,0.267-2.425,0.482c-0.44,0.071-0.881,0.111-1.32,0.111 c-0.443,0-0.884,0.032-1.326,0.104h-1.21c-0.368,0.144-0.919,0.202-1.652,0.163c-0.736-0.039-1.287-0.091-1.652-0.163 c-0.59-0.144-1.121-0.195-1.597-0.163c-0.479,0.04-0.979-0.02-1.49-0.163c-0.368-0.065-0.736-0.124-1.102-0.157 c-0.368-0.039-0.733-0.091-1.102-0.163c-0.808-0.215-1.58-0.431-2.313-0.646c-0.733-0.215-1.435-0.463-2.093-0.756 c-3.455-1.434-6.355-3.279-8.706-5.541c-2.353-2.262-4.263-5.078-5.729-8.448c-0.365-0.652-0.661-1.35-0.883-2.099 c-0.222-0.756-0.44-1.525-0.658-2.314c-0.075-0.287-0.111-0.554-0.111-0.808c0-0.254-0.075-0.554-0.222-0.913 c-0.146-0.509-0.219-1.03-0.219-1.564c0-0.541-0.078-1.056-0.221-1.564v-1.825c-0.15-0.359-0.219-0.77-0.219-1.239 c0-0.463,0.068-0.88,0.219-1.239c0.074-0.358,0.074-0.684,0-0.971c-0.072-0.28-0.072-0.567,0-0.854 c0.143-0.501,0.198-0.971,0.166-1.401c-0.039-0.43,0.016-0.86,0.163-1.291c0.368-1.291,0.661-2.529,0.88-3.715 c0.222-1.187,0.554-2.354,0.99-3.501c1.62-3.657,3.657-6.708,6.121-9.146c2.458-2.438,5.6-4.413,9.42-5.919 c1.026-0.437,2.096-0.736,3.193-0.919c1.102-0.176,2.243-0.411,3.416-0.697c0.587-0.072,1.138-0.104,1.656-0.104 C371.386,24.782,371.94,24.743,372.526,24.671"></path> <path fill="#1E76BC" d="M462.548,53.412c0.15,0.573,0.15,1.219,0,1.936c-0.146,0.717-0.4,1.18-0.769,1.402 c-0.372,0.287-0.903,0.482-1.598,0.586c-0.7,0.111-1.473,0.183-2.313,0.215c-0.848,0.045-1.691,0.045-2.536,0 c-0.844-0.033-1.597-0.052-2.259-0.052h-26.886h-1.486c-0.479,0-0.902,0.072-1.268,0.215c-0.59,0.293-0.955,0.574-1.102,0.861 c-0.146,0.15-0.294,0.417-0.44,0.808c-0.149,0.397-0.188,0.77-0.114,1.128c0.15,0.437,0.238,0.847,0.28,1.238 c0.036,0.398,0.128,0.809,0.274,1.239c0.587,1.727,1.304,3.142,2.147,4.256c0.845,1.108,2.001,2.099,3.468,2.959 c0.594,0.359,1.196,0.587,1.822,0.698c0.622,0.104,1.268,0.267,1.926,0.482c0.587,0.15,1.396,0.254,2.426,0.326 c1.029,0.072,1.909,0.033,2.646-0.111h0.99c0.733-0.144,1.411-0.3,2.037-0.476c0.626-0.183,1.229-0.385,1.822-0.593 c0.729-0.359,1.558-0.834,2.477-1.408c0.916-0.567,1.598-1.147,2.037-1.721c0.365-0.502,0.753-0.984,1.157-1.447 c0.404-0.469,0.899-0.815,1.486-1.03c0.736-0.352,1.672-0.515,2.812-0.482c1.135,0.032,2.184,0.059,3.143,0.059 c0.439,0,0.896-0.026,1.372-0.059c0.479-0.033,0.899,0.02,1.271,0.163h1.099c0.736,0.143,1.248,0.319,1.545,0.534 c0.294,0.15,0.46,0.47,0.495,0.971c0.036,0.502-0.02,0.932-0.166,1.291c-0.365,1.01-0.772,1.903-1.209,2.692 c-0.443,0.789-0.958,1.578-1.545,2.366c-1.616,2.373-3.451,4.27-5.508,5.704c-2.061,1.44-4.629,2.659-7.715,3.663 c-0.809,0.28-1.617,0.463-2.422,0.535c-0.812,0.078-1.655,0.215-2.536,0.43c-0.296,0.078-0.605,0.091-0.935,0.059 c-0.333-0.039-0.646-0.02-0.939,0.052h-1.212c-0.368,0.144-0.786,0.202-1.265,0.163c-0.479-0.039-0.903-0.091-1.268-0.163 c-0.591-0.072-1.099-0.072-1.545,0c-0.44,0.072-0.92,0.033-1.428-0.111c-0.372-0.144-0.776-0.215-1.213-0.215 c-0.443,0-0.848-0.065-1.216-0.215c-0.808-0.144-1.616-0.3-2.425-0.482c-0.805-0.176-1.541-0.443-2.2-0.802 c-0.808-0.293-1.564-0.554-2.259-0.808c-0.703-0.254-1.343-0.561-1.929-0.919c-2.354-1.434-4.446-3.103-6.284-5.006 c-1.835-1.903-3.341-4.106-4.515-6.616c-0.368-0.789-0.661-1.597-0.883-2.418c-0.219-0.834-0.512-1.668-0.88-2.536 c-0.075-0.28-0.111-0.547-0.111-0.802c0-0.254-0.039-0.521-0.107-0.815c-0.296-0.86-0.482-1.786-0.554-2.796 c-0.072-1.004-0.15-2.008-0.219-3.012c0-0.358-0.02-0.756-0.059-1.186c-0.036-0.43-0.017-0.821,0.059-1.187v-1.291l0.329-2.582 c0.294-1.219,0.551-2.399,0.77-3.553c0.222-1.147,0.554-2.223,0.994-3.227c3.158-7.464,8.52-12.737,16.088-15.821 c1.026-0.437,2.073-0.736,3.139-0.919c1.065-0.176,2.184-0.411,3.363-0.697c0.587-0.072,1.138-0.104,1.652-0.104 c0.512,0,1.062-0.039,1.652-0.111c3.745-0.072,6.956,0.339,9.638,1.239c2.687,0.893,5.088,2.06,7.223,3.5 c0.655,0.423,1.32,0.906,1.982,1.447c0.661,0.541,1.248,1.102,1.76,1.669c0.222,0.365,0.515,0.646,0.883,0.867 c0.584,0.789,1.138,1.597,1.652,2.418c0.512,0.828,1.066,1.669,1.653,2.529c0.368,0.646,0.678,1.311,0.938,1.988 c0.254,0.685,0.531,1.421,0.828,2.21c0.364,0.932,0.658,1.903,0.876,2.907c0.226,1.004,0.477,2.008,0.772,3.012 c0.146,0.573,0.199,1.206,0.167,1.884c-0.036,0.684,0.016,1.31,0.162,1.884V53.412z M446.021,47.056 c0.515-0.717,0.57-1.59,0.169-2.633c-0.407-1.037-0.72-1.812-0.941-2.314c-1.026-1.936-2.383-3.429-4.071-4.465 c-1.691-1.043-4.045-1.597-7.056-1.675c-0.219,0.15-0.479,0.183-0.772,0.111c-0.294-0.072-0.551-0.072-0.772,0 c-0.365,0.143-0.77,0.234-1.21,0.273c-0.439,0.033-0.844,0.124-1.212,0.268c-3.233,1.004-5.619,2.972-7.161,5.919 c-0.149,0.287-0.315,0.665-0.498,1.127s-0.31,0.939-0.385,1.402c-0.072,0.469-0.053,0.912,0.052,1.343 c0.114,0.437,0.353,0.795,0.721,1.082c0.587,0.358,1.395,0.534,2.425,0.534h2.976h12.229c1.03,0,2.112-0.02,3.25-0.052 C444.902,47.937,445.655,47.63,446.021,47.056"></path> <rect x="206.381" y="19.711" fill="#2AA9E0" width="3.337" height="143.011"></rect> </g> </svg>